<?xml version="1.0" encoding="UTF-8"?><svg id="Layer_1" xmlns="http://www.w3.org/2000/svg" viewBox="0 0 388.18 495.35"><defs><style>.cls-1{fill:#efe3d3;}</style></defs><path class="cls-1" d="M163.4,286.7c1.57,0,3.42-1.58,3.83,2.55-1.83-.02-3.68.24-5.35,1.05-.44.21-5.42,3.95-5.61,4.25s.2,4.69-2.43,5.81c-8.71-.43-17.43.3-26.11.52-16.18.42-32.5.05-48.75-.61-5.68-.23-14.79,2.02-19.64-2.45-4.68-4.33-2.74-24.25-2.92-31.2-.54-20.94-.88-42-1.21-63.23-.2-12.86-.95-25.78-.54-38.67-8.43,6.05-16.5,7.34-26.6,4.87-9.77-2.39-19.57-9.16-11.76-19.79,5.48-7.45,16.69-15.91,23.47-22.59C79.75,87.86,125.17,44.66,169.39,10.34,174.04,6.73,182.36-.17,188.13,0c3.97.12,10.29,5.19,13.62,7.77,29.3,22.68,58.58,51.41,86.01,76.46,25.38,23.18,50.34,46.55,75.61,69.8,8.57,10.88-16.65,16.02-24.12,14.75-4.23-.72-8.12-4.48-12.56-4.91.16,7.53-.22,15.1-.04,22.64.74,31.62,3.62,69.44.87,100.61-.8,9.08-4.69,13.34-14.1,14.12-23.8,1.98-51.76-.85-75.85-.97-1.44,0-2.56.36-3.82.94-1.17-2.77,2.5-3.15,2.57-3.91.02-.25-.89-4.46-1.06-4.87-.65-1.54-4.03-2.75-5.59-3.8-.88-.59-2.26-.75-.2-1.52,1.78-.67,4.39-.23,5.56,1.3,1.44-4.39,5.04-.02,6.81.03.52.02.3-1.57.99-1.74,4.62-1.13,11.98.53,16.89-.88l27.27.74,22.94-20.53c.31-1.01,1.74-6.47-.69-5.75-7.44,2.19-21.47,19.54-28.16,18.75-.73,0-.58-1.74-.45-2.14.18-.55,7.92-5.52,9.41-6.81,7.04-6.12,14.14-13.07,20.47-19.62l-.02-6.41-2.8.18-24.06,16.03c-.65.12-.53-.81-.44-1.29.4-2.02,17.06-17.96,20.03-20.91,3.54-3.52,10.56-6.44,5.97-12.78-1.62-.3-12.04,7.42-14.65,8.36-3.49,1.25-1.96-3.48-.29-4.56,2.83-3.71,13.34-9.77,15.46-12.69,1.36-1.87.71-4.29.79-6.46-1.13-1.17-11.36,5.67-13.2,6.83l-9.82,4.68c-.36-1.8.83-2.35,1.69-3.43,2.55-3.21,7.52-7.71,10.66-10.66,1.68-1.58,9.76-7.48,10.26-8.5,1.07-2.15.8-5.53-2.39-5.01s-15.27,11.64-18.51,9.25c1.99-3.86,5.74-7.23,8.93-10.25,5.14-4.87,14.04-8.35,11.53-16.18l-20.49,14.04-4.24.03,12.25-13.77,12.91-10.54.43-5.96c-7.33,3.39-16.8,12.26-24.32,14.48-1.22.36-1.49-.1-1.27-1.27.33-1.81,15.65-16.66,18.33-19.21,2.87-2.73,7.74-3.88,7.27-8.5l-15.29,8.15c-2.86,2.19-5.97,4.15-8.8,6.37-.24.19-2.45,4.06-3.19.38-.57-2.78,21.27-22.85,25.58-24.73l.86-3.83c-1.56-1.75-27.02,18.19-28.98,16.2-.67-2.1.55-2.05.96-2.66,3.46-5.09,9.26-11.2,13.95-15.25,1.35-1.16,6.86-3.27,6.39-5.53-.15-.71-1.7-1.75-2.61-.94-3.43,1.82-22.02,14.6-24.23,14.15-.62-.13-1.33-1.35-1.33-2.14.01-2.58,17.55-15.96,20.49-18.77l-1.36-2.08c-.52-.16-1.05-.1-1.58-.05-2.11.19-16.66,11.28-20.18,13.14-1.57.83-3.19,1.48-5.02,1.37-.23-1.58.01-2.52.81-3.88,2.73-4.67,13.78-12.69,17.94-17.03.36-1.78-.87-1.4-2.13-1.29-4.76.44-14.77,9.98-20.27,12.15-1.35.53-2.63,1.21-4.04.25-1.53-1.28-.81-1.43,0-2.59,4.24-6.06,13.27-11.95,18.76-17.05,0-.49-2.42-1.91-3.17-2.02-2.65-.36-19.73,11.74-23.48,13.72l-5.73.66c-.21-1.7,1.44-2.83,2.54-3.84,5.62-5.2,11.93-9.63,17.51-14.94.54-.51,1.37-.78,2.11-.84l-2.97-4.1-24.86,17.64-7.12,1.82c7.82-8.83,16.59-18.12,26.43-24.75-3-5.25-5.7-2.09-9.31.51-6.59,4.74-15.2,13.75-21.81,17.42-.97.54-3.86,1.78-4.7,1.29v-2.58c8.35-7.8,15.23-18.06,24.72-24.31l-2.98-4.23-28.32,22.85c-2.49.4-5.53.5-3.23-2.4,6.52-8.22,16.98-15.95,24.31-23.69,1.6-1.99,1.73-2.91.84-5.31-2.16-.34-3.47,1.18-5.03,2.21-9.13,6.05-16.99,16.08-25.72,22.04-1.61,1.1-4.01,2.6-5.91,3.04-2.58-2.91,8.65-12.28,10.67-14.49,1.71-1.88,3.25-4.76,4.98-6.54,3.92-4.02,9.27-7.82,13.33-11.82-3.12-5.03-8.94,1.22-12.32,3.86-2.79,2.18-24.99,24.1-27.73,21.3-.37-1.72.38-2.28,1.24-3.45,2.61-3.56,9.94-11.13,13.32-14.63,4.63-4.78,10.2-9.53,15.34-13.85,2.19-2.73-.05-4.45-2.88-2.96-9.89,5.23-20.01,17.16-29.66,23.3-.94.6-6.22,3.63-6.74,3.06-.58-2.03.39-1.93.95-2.68,1.07-1.43,3.58-3.93,4.97-5.44,7.79-8.4,16.57-16.95,25.62-23.9l-2.99-3.77-44.79,37.94c-1.18-1.46-2.47-3.47-.89-5.17l23.92-23.87c4.04-3.7,12.69-8.71,15.36-12.78.85-1.3.31-2.16-.43-2.12l-84.9,72.04-46.67,42-.17,6.22c.97.16,1.65-.03,2.53-.44,5.43-2.54,21.97-17.25,27.31-22.15,2.41-2.21,4.43-5.54,6.37-7.28.66-.6,1.55-1.64,2.15-.41.77,6.02-.35,4.89-3.63,7.28-1.4,1.02-1.76,3.09-4.89,1.68,2.58,5.74-3.13,4.3-4.13,5.31-1.28,1.29-1.38,1.64-3.6,3.59-7.5,6.6-14.38,14.16-21.95,20.71,0,.96-1.21,8.03,1.09,7.07,5.83-5.26,14.14-11.28,21.3-14.52.81-.37,2.34-1.68,3.02-.39-4.15,5.53-10.1,10.79-15.35,15.36-1.59,1.38-9.67,6.76-10.06,7.42-.68,1.17-.25,6.66.24,8.35,4.99-4.2,11.36-8.93,17.22-11.78,1.62-.79,4.52-2.47,6.25-1.43l-23.11,21.3-.77,8.12,22.7-13.53,3.72-.96c-.29.97-.8,1.83-1.5,2.57-6.08,6.38-17.6,12.63-22.96,19.01-1.9,2.27-2.2,5.78-1.99,8.64l2.15.49c2.27-3.19,7.19-5.02,10.58-7.34,4.51-3.1,8.67-7.73,13.72-9.3l-1.22,3.9-24.83,22.14c-.8,1.17.96,8.52,2.15,7.65.13-2.14,2.36-3.11,4.02-4.1,3.1-1.86,8.39-4.55,11.73-6.17.81-.4,2.39-1.63,3.03-.38-5.05,7.93-15.38,11.97-20.32,19.79,1.11,1.59-.94,8.6,1.55,7.52,8.55-5.08,17.33-13.97,25.95-18.41.64-.33,2.86-1.61,3.04-.37.57,2.39-.73,1.81-1.58,2.65-3.42,3.36-6.82,6.93-10.35,10.15-2.55,2.33-16.94,13.09-17.48,14.07-1.2,2.16-.05,6.41-.44,8.95l2.01.3,18.25-14.34c1.08-.26,7.35-5.04,7.88-2.15l-26.49,25.52-.79,7.31,40.07-23.88c.37,1.72-.38,2.28-1.24,3.45-1.69,2.31-7.47,7.77-9.83,9.78-3.53,3-11.27,6.83-13.67,10.21-2.17,3.05,5.84,1.31,7.48.66,2.72-1.08,9.68-7.04,13.08-9.09,5.87-3.54,11.94-7.17,18.25-9.89,1.35.78-.2,1.94-.82,2.59-5.42,5.72-13.49,10.93-19.19,16.61,4.86,3.71,12.55-.76,15.98-4.66l18.96-10.26c1.47,1.6-5.88,8.16-7.27,9.35-1.79,1.55-9.6,5.5-8.07,7.7,2.24-1.39,4.77-.46,7.04-1.05,2.69-.71,15.82-11.72,18.53-9.18-.12,5.12-7.84,5.04-8.52,10.23,6.39.03,12.79-.04,19.19,0ZM104.5,107.92c21.87-19.15,43.64-38.66,65.75-57.49,8.6-7.33,17.55-14.54,26.82-20.92l-4.5-2.89c-47.36,37.65-92.52,77.96-135.37,120.57l-.39,3.02c16.1-13.85,31.73-28.31,47.69-42.29ZM295.14,285.85c10.69.86,14.66-.09,15.34-11.5l-1.7-.87c-3.66,4.05-8.47,6.92-12.56,10.42-.61.52-1.61-.03-1.08,1.95Z"/><path class="cls-1" d="M260.73,141.13c17.76,19.76,4.19,54.01-8.74,72.97-9.72,14.24-24.04,27.65-37.45,38.46-2.81,2.27-21.6,16.51-23.22,16.91-2.79.69-4.71-.65-6.96-2.02-8.2-4.98-24.63-20.19-32.47-27.23-24.22-21.74-62.83-66.11-28.68-96.53,21.8-19.42,49.96-8.08,64.97,13.38,2.25.68,3.81-3.76,5.48-5.6,17.05-18.71,46.57-33.15,67.08-10.34ZM187.37,243.72c-.62.66-1.67.85-2.22,1.62.54,3.16,4.2,3.72,6.79,2.51,15.82-13.04,32.68-25.43,44.72-42.26,9.19-12.84,22.1-37.27,12.3-52.24-11.02-16.82-31.83-4.97-41.62,6.7-6.46,7.7-11.08,27.18-22.64,16.64-12.83-11.7-23.29-35.56-45.33-25.77-4.87,2.16-11.81,8.93-11.78,14.66,3.23-2.1,6.41-7.59,10.26-8.51,1.04-.25,2.75-.3,2.11,1.25-1.05,1.22-2.39,2.18-3.38,3.45-1.74,2.23-10.48,13.7-8.55,15.75,4.48.74,18.24-14.33,21.31-11.93l-3.35,4.74c-2.76,2.76-16.55,13.67-15.88,16.66.1.45,2.71,4.48,3.01,4.67,1.16.75,1.34.07,2.2-.41,2.94-1.62,16.63-12.19,19.13-10.29-3.93,6.92-11.09,11.53-16.67,17.04l2.27,5.03c.8.47,1.67.02,2.43-.34,2.79-1.32,18.29-16.1,20.48-14.05-3.32,7.54-10.45,14.23-16.98,18.85-.73,1.04,3.34,7.22,5.86,6.34,2.96-1.03,17.44-15.67,20.51-13.25-.59,6.83-12.9,13.4-14.95,17.92-1.05,2.31.88,5.07,3.45,3.43,2.92-1.87,22.45-16.2,24.29-14.53.37,1.61-.91,2.02-1.7,2.98-5.45,6.64-12.83,11.72-18.74,17.91,1.15,1.12,2.69,3.08,4.22,3.5,3.17.88,17.39-11.96,23.01-12.95,1.45-.26,1.54-.49,2.58.91-.06,1.79-17.12,13.51-19.62,16.19-1.22,1.31-.61,1.06.46,2.13.64.63,4.4,3.47,4.98,3.37,2.39-2.52,22.41-18.99,24.42-17,.37,1.73-.38,2.28-1.24,3.45-3.72,5.09-11.55,10.9-16.15,15.84Z"/><path class="cls-1" d="M23.13,459.87c-.28,8.68-1.32,17.23.11,25.91l.7,1c6.88-.92,10.22,7.16,3.06,8.1-4.35.57-18.77.58-23.1,0-4.4-.59-5.25-4.81-1.72-6.92,3.82-2.28,5.83,1.01,6.49-6.3.91-10.23,1.44-40.88-.09-50.32-1-6.22-5.59-2.82-7.5-4-1.54-3.04-1.1-6.3,2.81-6.75,4.73-.55,18.45-.59,23.11,0,4.32.56,3.96,3.12,3.8,6.87-2.15-.15-6.73-.18-7.54,2.27-.27.82-.97,9.98-1.03,11.77-.13,3.87-.23,7.85.89,11.55h30.7c.56-5.3,2.11-17.69.69-22.44-.89-2.96-13.22-3.01-7.3-8.92,1.47-1.46,24.74-1.64,27.06-.61,1.8.8,3.41,3.64,2.22,5.59-1.07,1.45-7.26-.02-8.15,4.64,1.16,16.14-1.6,34.5-.07,50.36.7,7.25,5.83,4.54,7.53,6.55,1.56,1.84.96,6.07-1.93,6.62-3.4.65-20.19.53-23.92.04-2.29-.3-4.07-1.22-3.84-3.83.33-3.66,5.02-2.61,6.86-4.31,2.18-2.03,2.34-20.45,1.69-23.86-.18-.94-1.47-3.01-2.11-3.01h-29.42Z"/><path class="cls-1" d="M369.2,429.28l-9.19-1.9,2.21-6.78c4.65.86,21.89-1.38,24.66.8.7.55,1.08,1.38,1.21,2.26,1.03,6.85-7.5.74-8.46,7.68-2.47,17.88,1.59,39.61-.04,58-.13,1.49-.18,3.57-1.3,4.67-1.46,1.44-8.66,1.25-10.31.04-1.17-.85-8.49-11.5-10.11-13.77-9.53-13.3-17.92-27.54-27.35-40.89-1.95-.33-1.16.85-1.27,2.12-1.24,14.39.55,30.64.97,45.11l1.3,1.26c3.95-1.26,11.51,4,6.25,6.53-1.92.92-22.97.79-24.38-.34-1.39-1.11-1.48-3.46-1.09-5.1l6.15-1.74,1.34-3.1c-.85-15.72,1.41-33.09.11-48.61-.78-9.36-6.15-5.98-8.18-9.77-.96-1.8.7-4.05,2.2-4.68,2.27-.94,18.07-.86,20.08.35l34.9,50.37.31-42.51Z"/><path class="cls-1" d="M85.38,365.2c-.35,1.29.33,1.41.84,2.13,2.2,3.15,5.68,6.44,8.04,9.87,1.55,2.26,8.99,15.53,10.1,15.87,2.84.87,8.5-1.1,8.28,4.13-.24,5.75-17.54,4.79-21.23,1.62-6.08-5.21-13.95-28.43-18.83-30.64-1.79-.82-8.55-1.17-9.25.96.25,6.22-.78,13.43-.12,19.52.67,6.16,4.16,3.68,8.6,6.08v5.08c-.82,1.03-1.81,1.08-3.01,1.24-4.63.62-20.18.62-24.81,0-3.33-.45-4.97-2.85-3.38-6.02,1.81-3.62,7.29,1.68,8.17-7.19,1.58-16.08-1.28-34.83-.08-51.21-.87-4.63-5.72-1.81-7.74-4.22-2.69-6.47,5.31-6.27,9.86-6.51,10.12-.54,26.16-.69,35.79,1.8,21.5,5.54,18.9,32.37-1.22,37.49ZM63.21,360.07c4.86,1.18,12.5.98,17.1-1.23,9.05-4.34,8.89-20.41-.74-24.1-3.16-1.21-16.37-2.51-16.37,1.87v23.46Z"/><path class="cls-1" d="M145.92,358.36h14.92c3.54,0,2.57-11.27,8.59-6.88,2.83,2.06,2.47,13.97,2.12,17.6-.25,2.59-1.4,5.82-4.7,5.53-4.11-.35-2.45-7.72-6.02-7.72h-13.64l-1.28,1.28v23.03c3.93,2.95,16.89,2.99,21.56,1.95,5.36-1.2,4.96-10,10.42-9.99,8.35.01,4.11,17.09,0,17.85l-50.35.04c-3.3-.47-6.31-2.44-4.23-6.02,1.87-3.23,7.37,1.47,8.15-7.2,1.05-11.66,1.33-39.87-.13-51.16-.78-6.06-7.68-.44-7.67-6.9.01-5.78,9.77-3.75,13.27-3.8,9.49-.12,18.87.35,28.32.49,3.43.05,11.55-2.02,13.98.7,2.98,3.33,2.34,15.07-3.09,15.86-5.61.81-4.49-5.06-6.28-7.34-2.08-2.65-16.58-2.59-20.15-2.11-2.07.28-3.43,1.06-4.29,2.99l.5,21.79Z"/><path class="cls-1" d="M270.2,394.39c1.73,1.45,1.43,5.66-1.24,6.45-2.15.64-24.56.49-26.73-.21-.96-.31-2.06-.88-2.39-1.89-1.24-5.32,3.37-5.54,7.47-5.48,2-1.12-2.34-13.21-3.67-15.36l-26.43-.82-4.68,14.92c.58,2.35,7.07,1.62,8.06,2.99.95,1.3.48,4.23-.83,5.26s-19.43,1.19-22.29.81c-4.35-.57-4.8-5.46-2.8-6.72,2.06-1.3,6.38.57,9.01-5.06,6.23-16.97,11.42-34.43,17.74-51.35,1.06-2.84,2.61-8.25,4.01-10.49,2.1-3.34,10.05-3.44,12.49-.97l26.14,65.13c.95,2.35,5.01,1.85,6.14,2.8ZM220.1,368.6h19.61l-9-24.73-1.65-1.72-8.96,26.45Z"/><path class="cls-1" d="M261.88,485.04c1.1,3.67,18.91,1.72,22.45,1.99,3.8-2.29,3.08-9.93,7.81-10.18,9.25-.5,5.38,16.94-.01,17.99-15.57-.84-32.35,1.18-47.77.06-1.58-.11-3.11-.27-4.53-1.01-1.85-8.51,4.29-5.43,6.75-7.08.73-.49,1.67-4.95,1.68-6.07.15-11.56-.65-23.25-.92-34.91-.12-5.1,1.02-9.96.02-15.36-.86-4.61-6.01-2.04-7.29-3.8-1.6-2.21.31-6.45,3.43-6.07l47.61.22c6.56,2.37,4.88,18.91-2.16,17.57-6.44-2.53-.97-8.78-9.68-9.99-2.65-.37-17.4-.93-17.4,2.05v20.47c0,3.8,15.28,1.58,16.08.3.68-1.1-.69-3.34,1.76-5.48,8.73-7.66,5.67,16.92,5.92,20.42-4.55,4.11-8.44-.1-7.55-5.43h-16.2v24.31Z"/><path class="cls-1" d="M130.41,420.8l25.98,66.14c5.91-.68,8.69,7.24,2.8,7.95-4.92.59-19.97.64-24.81,0-8.81-1.17-1.06-9.68,5.59-7.72.61-.61-3.18-12.7-4-14.27-.62-1.18-1.14-1.53-2.48-1.66l-22.98.47c-1.38,1.12-4.92,12.25-4.51,14.02.72,3.1,5.69,1.81,7.34,3.35,1.35,1.26.89,4.43-.64,5.35-1.55.93-22.45.72-24.16-.37-1.11-.71-1.78-3.15-1.05-4.34,1.25-2.05,7.86-1.35,8.82-4.87l21.96-63.34c1.39-2.22,9.48-.92,12.16-.71ZM111.81,463.28h20.46l-9.81-27.3-10.65,27.3Z"/><path class="cls-1" d="M194.53,475.23l1.88-1.95c2.59-13.04,12.6-28.95,14.96-41.35,1.12-5.87-2.19-3.19-6.25-5.26v-5.24c.61-.87,1.66-.73,2.57-.84,2.94-.35,18.96-.33,20.91.49,2.25.94,3.44,5.12,1.59,6.25-.96.59-4.21-.29-6.12.91-3.87,2.44-20.85,57.68-24.86,65.76l-11.38.7-22.51-63.21c-2.96-5.51-7.57-3.38-8.42-4.53-1.16-1.57-1.11-4.91.95-5.91,1.49-.73,22.39-.83,25.19-.46,1.47.19,2.56.33,3.39,1.74v3.43c-1,1.88-6.14,2.05-6.21,5.33l14.29,44.13Z"/><path class="cls-1" d="M337.65,400.88l-50.65.18c-4.03-.14-4.69-3.74-2.73-6.66,6.39-1.18,7.77-1.68,7.99-8.45.46-14.14-.37-28.34-.57-42.55-.04-2.8,1.79-6.8-1.3-8.86-1.94-1.3-4.93-.18-6.27-2.26-1.28-1.58-.89-4.9.79-5.91,1.52-.91,25.75-.71,27.93.23,1.86.8,4.54,3.91,2.86,5.81-2.09,2.38-7.86-.03-8.59,4.24-.27,11.34.02,22.75.01,34.13,0,4.57-.9,10.76-.8,15.23.03,1.44.94,5.75,1.95,6.58,1.59,1.31,15.76,1.05,18.44.36,8.84-2.29,3.27-16.11,11.09-14.63,8.76,1.66,1.64,17.43-.15,22.57Z"/><path class="cls-1" d="M335.07,31.81c3.24,1.86,2.73,19.1,8.31,24.51,4.03,3.91,19.58,5.37,19.81,8.15.26,3.08-15.37,8.19-18.53,10.33-8.13,5.52-4.27,15.55-9.05,22.53-4.25.97-8.73-17.84-10.6-20.93-3.84-6.32-17.54-6.54-17.98-11.1-.47-4.94,14.35-7.86,17.98-11.87,3.39-3.75,4.47-20.61,7.33-21.68.73-.27,2.04-.33,2.72.06Z"/><path class="cls-1" d="M158.76,79.43c-.18.19-.84,4.28-1.95,4.9-1.23.69-3.79-.41-4.92,1.48l2.55.84c-6.07,5.31-12.64,10.1-18.78,15.33-1.72,1.47-3.25,2.83-4.78,4.12-2.04,1.72-1.75,5.48-5.41,1.02,3.28-3.55,7.01-6.64,10.64-9.81,5.78-5.04,12.34-10.08,18.04-15.64,2.29-2.23,3.46-6.42,7.95-7.39l1.71,3.78c-1.15,2.88-4.86,1.16-5.06,1.36Z"/><path class="cls-1" d="M123.74,111.83c1,4.06-2.14,3.87-4.69,5.95l-1.27-3.4c2.89,1.93,1.03-.65,1.86-1.49.33-.33,3.96-1.23,4.1-1.06Z"/></svg>